<svg version="1.1" viewBox="0.0 0.0 2440.0 720.0" fill="none" stroke="none" stroke-linecap="square" stroke-miterlimit="10" xmlns:xlink="http://www.w3.org/1999/xlink" xmlns="http://www.w3.org/2000/svg"><clipPath id="p.0"><path d="m0 0l2440.0 0l0 720.0l-2440.0 0l0 -720.0z" clip-rule="nonzero"/></clipPath><g clip-path="url(#p.0)"><path fill="#000000" fill-opacity="0.0" d="m0 0l2440.0 0l0 720.0l-2440.0 0z" fill-rule="evenodd"/><path fill="#000000" fill-opacity="0.0" d="m820.4619 153.14961l1619.5276 0l0 400.75592l-1619.5276 0z" fill-rule="evenodd"/><path fill="#ffffff" d="m841.05566 313.1896l0 -112.625l77.203125 0l0 19.0625l-54.453125 0l0 26.65625l47.015625 0l0 19.046875l-47.015625 0l0 47.859375l-22.75 0zm95.80542 -112.625l22.734375 0l0 61.0q0 14.515625 0.84375 18.828125q1.46875 6.90625 6.953125 11.09375q5.5 4.1875 15.015625 4.1875q9.6875 0 14.59375 -3.953125q4.921875 -3.953125 5.921875 -9.71875q1.0 -5.765625 1.0 -19.125l0 -62.3125l22.734375 0l0 59.15625q0 20.28125 -1.84375 28.65625q-1.84375 8.375 -6.796875 14.140625q-4.953125 5.75 -13.25 9.171875q-8.296875 3.421875 -21.671875 3.421875q-16.125 0 -24.46875 -3.71875q-8.328125 -3.734375 -13.171875 -9.6875q-4.828125 -5.953125 -6.375 -12.484375q-2.21875 -9.671875 -2.21875 -28.578125l0 -60.078125zm113.99231 112.625l0 -112.625l22.125 0l46.09375 75.21875l0 -75.21875l21.125 0l0 112.625l-22.8125 0l-45.40625 -73.4375l0 73.4375l-21.125 0zm113.32056 -112.625l41.546875 0q14.0625 0 21.4375 2.15625q9.90625 2.921875 16.96875 10.375q7.078125 7.453125 10.765625 18.25q3.6875 10.78125 3.6875 26.609375q0 13.90625 -3.453125 23.96875q-4.234375 12.296875 -12.0625 19.890625q-5.921875 5.765625 -15.984375 9.0q-7.53125 2.375 -20.125 2.375l-42.78125 0l0 -112.625zm22.734375 19.0625l0 74.59375l16.96875 0q9.53125 0 13.765625 -1.078125q5.53125 -1.390625 9.171875 -4.6875q3.65625 -3.3125 5.953125 -10.875q2.3125 -7.5625 2.3125 -20.625q0 -13.0625 -2.3125 -20.046875q-2.296875 -6.984375 -6.453125 -10.90625q-4.140625 -3.921875 -10.515625 -5.296875q-4.765625 -1.078125 -18.671875 -1.078125l-10.21875 0zm192.50793 93.5625l-24.734375 0l-9.828125 -25.578125l-45.015625 0l-9.296875 25.578125l-24.125 0l43.859375 -112.625l24.046875 0l45.09375 112.625zm-41.859375 -44.5625l-15.515625 -41.78125l-15.21875 41.78125l30.734375 0zm53.61731 44.5625l0 -112.625l34.03125 0l20.4375 76.828125l20.203125 -76.828125l34.109375 0l0 112.625l-21.125 0l0 -88.65625l-22.359375 88.65625l-21.890625 0l-22.28125 -88.65625l0 88.65625l-21.125 0zm131.36804 0l0 -112.625l83.5 0l0 19.0625l-60.765625 0l0 24.96875l56.53125 0l0 18.96875l-56.53125 0l0 30.65625l62.90625 0l0 18.96875l-85.640625 0zm105.155396 0l0 -112.625l22.125 0l46.09375 75.21875l0 -75.21875l21.125 0l0 112.625l-22.8125 0l-45.40625 -73.4375l0 73.4375l-21.125 0zm138.74231 0l0 -93.5625l-33.421875 0l0 -19.0625l89.5 0l0 19.0625l-33.34375 0l0 93.5625l-22.734375 0zm160.62842 0l-24.734375 0l-9.828125 -25.578125l-45.015625 0l-9.296875 25.578125l-24.125 0l43.859375 -112.625l24.046875 0l45.09375 112.625zm-41.859375 -44.5625l-15.515625 -41.78125l-15.21875 41.78125l30.734375 0zm54.539185 44.5625l0 -111.703125l22.734375 0l0 92.734375l56.546875 0l0 18.96875l-79.28125 0zm89.727295 -36.640625l22.125122 -2.15625q2.0 11.140625 8.09375 16.375q6.109375 5.21875 16.484375 5.21875q10.984375 0 16.546875 -4.640625q5.578125 -4.65625 5.578125 -10.875q0 -4.0 -2.34375 -6.796875q-2.34375 -2.8125 -8.1875 -4.890625q-3.984375 -1.375 -18.203125 -4.90625q-18.28125 -4.53125 -25.656372 -11.140625q-10.375 -9.296875 -10.375 -22.671875q0 -8.59375 4.875 -16.078125q4.890625 -7.5 14.062622 -11.421875q9.1875 -3.921875 22.171875 -3.921875q21.203125 0 31.90625 9.296875q10.71875 9.296875 11.265625 24.8125l-22.734375 1.0q-1.46875 -8.671875 -6.265625 -12.46875q-4.796875 -3.8125 -14.40625 -3.8125q-9.90625 0 -15.515625 4.078125q-3.609375 2.609375 -3.609375 6.984375q0 4.0 3.375 6.84375q4.296875 3.609375 20.890625 7.53125q16.59375 3.90625 24.546875 8.09375q7.953125 4.1875 12.4375 11.453125q4.5 7.25 4.5 17.9375q0 9.671875 -5.375 18.125q-5.375 8.453125 -15.21875 12.5625q-9.828125 4.109375 -24.5 4.109375q-21.34375 0 -32.796997 -9.875q-11.453125 -9.875 -13.671875 -28.765625zm149.80383 -18.984375q0 -17.203125 5.140625 -28.875q3.84375 -8.609375 10.484375 -15.4375q6.640625 -6.84375 14.5625 -10.140625q10.515625 -4.46875 24.265625 -4.46875q24.890625 0 39.828125 15.453125q14.953125 15.4375 14.953125 42.9375q0 27.265625 -14.828125 42.671875q-14.828125 15.40625 -39.640625 15.40625q-25.125 0 -39.953125 -15.328125q-14.8125 -15.328125 -14.8125 -42.21875zm23.421875 -0.765625q0 19.125 8.828125 29.0q8.84375 9.875 22.4375 9.875q13.59375 0 22.3125 -9.796875q8.71875 -9.796875 8.71875 -29.375q0 -19.359375 -8.484375 -28.890625q-8.484375 -9.53125 -22.546875 -9.53125q-14.0625 0 -22.671875 9.640625q-8.59375 9.640625 -8.59375 29.078125zm103.70288 56.390625l0 -112.625l77.203125 0l0 19.0625l-54.453125 0l0 26.65625l47.015625 0l0 19.046875l-47.015625 0l0 47.859375l-22.75 0z" fill-rule="nonzero"/><path fill="#ffffff" d="m840.60254 501.98956l0 -112.625l34.03125 0l20.4375 76.828125l20.203125 -76.828125l34.109375 0l0 112.625l-21.125 0l0 -88.65625l-22.359375 88.65625l-21.890625 0l-22.28125 -88.65625l0 88.65625l-21.125 0zm232.91492 0l-24.734375 0l-9.828125 -25.578125l-45.015564 0l-9.296875 25.578125l-24.125 0l43.859375 -112.625l24.046814 0l45.09375 112.625zm-41.859375 -44.5625l-15.515564 -41.78125l-15.21875 41.78125l30.734314 0zm125.97681 3.15625l22.046875 6.984375q-5.0625 18.4375 -16.859375 27.390625q-11.796875 8.953125 -29.921875 8.953125q-22.421875 0 -36.875 -15.328125q-14.4375 -15.328125 -14.4375 -41.90625q0 -28.109375 14.515625 -43.671875q14.515625 -15.5625 38.1875 -15.5625q20.65625 0 33.5625 12.21875q7.6875 7.21875 11.53125 20.75l-22.515625 5.375q-2.0 -8.765625 -8.34375 -13.828125q-6.328125 -5.078125 -15.390625 -5.078125q-12.53125 0 -20.328125 9.0q-7.796875 8.984375 -7.796875 29.109375q0 21.359375 7.6875 30.421875q7.6875 9.0625 19.96875 9.0625q9.078125 0 15.59375 -5.75q6.53125 -5.765625 9.375 -18.140625zm41.632935 41.40625l0 -112.625l22.75 0l0 44.328125l44.546875 0l0 -44.328125l22.75 0l0 112.625l-22.75 0l0 -49.234375l-44.546875 0l0 49.234375l-22.75 0zm112.851685 0l0 -112.625l22.75 0l0 112.625l-22.75 0zm44.63269 0l0 -112.625l22.125 0l46.09375 75.21875l0 -75.21875l21.125 0l0 112.625l-22.8125 0l-45.40625 -73.4375l0 73.4375l-21.125 0zm113.39856 0l0 -112.625l83.5 0l0 19.0625l-60.765625 0l0 24.96875l56.53125 0l0 18.96875l-56.53125 0l0 30.65625l62.90625 0l0 18.96875l-85.640625 0zm149.25684 0l0 -111.703125l22.734375 0l0 92.734375l56.546875 0l0 18.96875l-79.28125 0zm95.49292 0l0 -112.625l83.5 0l0 19.0625l-60.765625 0l0 24.96875l56.53125 0l0 18.96875l-56.53125 0l0 30.65625l62.90625 0l0 18.96875l-85.640625 0zm206.48352 0l-24.734375 0l-9.828125 -25.578125l-45.015625 0l-9.296875 25.578125l-24.125 0l43.859375 -112.625l24.046875 0l45.09375 112.625zm-41.859375 -44.5625l-15.515625 -41.78125l-15.21875 41.78125l30.734375 0zm53.99231 44.5625l0 -112.625l47.859375 0q18.0625 0 26.234375 3.046875q8.1875 3.03125 13.09375 10.796875q4.921875 7.75 4.921875 17.734375q0 12.671875 -7.453125 20.9375q-7.4375 8.25 -22.265625 10.40625q7.375 4.296875 12.171875 9.453125q4.796875 5.140625 12.9375 18.28125l13.75 21.96875l-27.1875 0l-16.4375 -24.5q-8.765625 -13.140625 -12.0 -16.5625q-3.21875 -3.421875 -6.828125 -4.6875q-3.609375 -1.265625 -11.4375 -1.265625l-4.609375 0l0 47.015625l-22.75 0zm22.75 -64.984375l16.8125 0q16.375 0 20.4375 -1.375q4.078125 -1.390625 6.375 -4.765625q2.3125 -3.390625 2.3125 -8.453125q0 -5.6875 -3.046875 -9.1875q-3.03125 -3.5 -8.5625 -4.421875q-2.765625 -0.375 -16.59375 -0.375l-17.734375 0l0 28.578125zm91.02356 64.984375l0 -112.625l22.125 0l46.09375 75.21875l0 -75.21875l21.125 0l0 112.625l-22.8125 0l-45.40625 -73.4375l0 73.4375l-21.125 0zm112.69556 0l0 -112.625l22.75 0l0 112.625l-22.75 0zm44.63257 0l0 -112.625l22.125 0l46.09375 75.21875l0 -75.21875l21.125 0l0 112.625l-22.8125 0l-45.40625 -73.4375l0 73.4375l-21.125 0zm165.7893 -41.40625l0 -18.96875l49.0 0l0 44.859375q-7.140625 6.90625 -20.703125 12.171875q-13.546875 5.265625 -27.453125 5.265625q-17.671875 0 -30.8125 -7.40625q-13.140625 -7.421875 -19.75 -21.203125q-6.59375 -13.796875 -6.59375 -30.0q0 -17.59375 7.375 -31.265625q7.375 -13.6875 21.578125 -20.984375q10.84375 -5.609375 26.96875 -5.609375q20.96875 0 32.765625 8.796875q11.796875 8.796875 15.171875 24.328125l-22.59375 4.21875q-2.375 -8.296875 -8.953125 -13.09375q-6.5625 -4.8125 -16.390625 -4.8125q-14.90625 0 -23.703125 9.453125q-8.796875 9.453125 -8.796875 28.046875q0 20.046875 8.90625 30.078125q8.921875 10.015625 23.359375 10.015625q7.15625 0 14.328125 -2.796875q7.1875 -2.8125 12.328125 -6.8125l0 -14.28125l-26.03125 0z" fill-rule="nonzero"/><path fill="#4f489a" d="m122.799164 228.92258l0 0c0 -46.235367 37.48117 -83.71654 83.71654 -83.71654l0 0c22.203003 0 43.496628 8.820114 59.196518 24.52002c15.69989 15.69989 24.52002 36.993515 24.52002 59.196518l0 0c0 46.235382 -37.48117 83.71655 -83.71654 83.71655l0 0c-46.235367 0 -83.71654 -37.48117 -83.71654 -83.71655z" fill-rule="evenodd"/><path fill="#4572b0" d="m552.15497 185.34564l167.43304 0l0 167.43307l-167.43304 0z" fill-rule="evenodd"/><path fill="#612f76" d="m290.20477 642.5357l97.03937 -167.43307l97.03937 167.43307z" fill-rule="evenodd"/><path fill="#ffffff" d="m420.979 300.98294l0 -236.46457l37.64566 0l0 242.35434l168.98428 292.6929l-28.59845 16.51184l-159.81891 -276.8189l-383.9449 221.66925l-18.905514 -32.740112z" fill-rule="evenodd"/></g></svg>